<svg width="32" height="32" viewBox="0 0 32 32" fill="none" xmlns="http://www.w3.org/2000/svg">
<path fill-rule="evenodd" clip-rule="evenodd" d="M29.3333 16.0001C29.3333 23.3639 23.3638 29.3334 16 29.3334C8.63616 29.3334 2.66663 23.3639 2.66663 16.0001C2.66663 8.63629 8.63616 2.66675 16 2.66675C23.3638 2.66675 29.3333 8.63629 29.3333 16.0001ZM16.4777 12.51C15.1809 13.0494 12.589 14.1659 8.70204 15.8593C8.07086 16.1103 7.74022 16.3559 7.71012 16.596C7.65925 17.0018 8.16739 17.1615 8.85935 17.3791C8.95347 17.4087 9.051 17.4394 9.15098 17.4719C9.83175 17.6932 10.7475 17.9521 11.2236 17.9624C11.6554 17.9717 12.1374 17.7937 12.6695 17.4283C16.3012 14.9768 18.1759 13.7377 18.2936 13.711C18.3766 13.6921 18.4917 13.6684 18.5697 13.7377C18.6476 13.807 18.64 13.9382 18.6317 13.9734C18.5814 14.188 16.5867 16.0424 15.5545 17.0021C15.2327 17.3012 15.0045 17.5135 14.9578 17.5619C14.8533 17.6705 14.7467 17.7732 14.6444 17.8719C14.0119 18.4816 13.5376 18.9388 14.6706 19.6854C15.2151 20.0442 15.6508 20.3409 16.0854 20.6369C16.5601 20.9602 17.0336 21.2826 17.6462 21.6842C17.8022 21.7865 17.9513 21.8927 18.0965 21.9962C18.6489 22.3901 19.1452 22.7439 19.7584 22.6875C20.1146 22.6547 20.4827 22.3197 20.6696 21.3205C21.1113 18.9592 21.9795 13.8428 22.1802 11.7345C22.1978 11.5498 22.1756 11.3134 22.1579 11.2096C22.1401 11.1058 22.103 10.958 21.9681 10.8485C21.8084 10.7189 21.5617 10.6916 21.4515 10.6935C20.95 10.7024 20.1805 10.9699 16.4777 12.51Z" fill="white"/>
</svg>
